<?xml version="1.0" encoding="UTF-8"?>
<svg id="Layer_1" data-name="Layer 1" xmlns="http://www.w3.org/2000/svg" viewBox="0 0 804.5 595.28">
  <defs>
    <style>
      .cls-1 {
        fill: none;
      }

      .cls-2 {
        fill-rule: evenodd;
      }

      .cls-2, .cls-3 {
        fill: #fff;
      }

      .cls-4 {
        fill: #00cbff;
      }
    </style>
  </defs>
  <rect id="Artboard10" class="cls-1" x="104.61" width="595.28" height="595.28"/>
  <g>
    <g>
      <path class="cls-2" d="M99.21,239.65l-69.34,69.34-10.86-10.86,69.34-69.34,10.86,10.86Z"/>
      <path class="cls-2" d="M107.03,366.64l-80.73-80.73-10.86,10.86,80.73,80.73,10.86-10.86h0Z"/>
      <circle class="cls-3" cx="22.75" cy="365.76" r="22.75"/>
      <circle class="cls-4" cx="22.75" cy="229.52" r="22.75"/>
      <path class="cls-2" d="M45.51,295.29c0,12.56-10.2,22.75-22.75,22.75S0,307.85,0,295.29s10.2-22.75,22.75-22.75,22.75,10.2,22.75,22.75Z"/>
      <circle class="cls-3" cx="99.42" cy="229.52" r="22.75"/>
      <circle class="cls-3" cx="99.42" cy="365.76" r="22.75"/>
    </g>
    <path class="cls-3" d="M227.23,352h-23.96v-99.6h23.96v99.6ZM300.64,352h-31.2l-45.69-51.68h2.23l39.84-47.92h28.98l-42.91,50.01v-4.18l48.76,53.77h0Z"/>
    <path class="cls-3" d="M386.18,252.4v60.32c0,13.09-3.92,23.29-11.77,30.58-7.85,7.29-18.69,10.93-32.53,10.93s-24.55-3.64-32.45-10.93-11.85-17.48-11.85-30.58v-60.32h23.96v60.32c0,5.94,1.81,10.84,5.43,14.7,3.62,3.85,8.6,5.78,14.93,5.78s11.4-1.93,15.02-5.78c3.62-3.85,5.43-8.75,5.43-14.7v-60.32h23.82Z"/>
    <path class="cls-3" d="M418.49,352h-23.96v-99.6h23.96v99.6ZM491.91,352h-31.2l-45.69-51.68h2.23l39.84-47.92h28.98l-42.91,50.01v-4.18l48.76,53.77Z"/>
    <path class="cls-3" d="M577.44,252.4v60.32c0,13.09-3.92,23.29-11.77,30.58-7.85,7.29-18.69,10.93-32.53,10.93s-24.55-3.64-32.45-10.93c-7.9-7.29-11.85-17.48-11.85-30.58v-60.32h23.96v60.32c0,5.94,1.81,10.84,5.43,14.7,3.62,3.85,8.6,5.78,14.93,5.78s11.4-1.93,15.02-5.78c3.62-3.85,5.43-8.75,5.43-14.7v-60.32h23.82Z"/>
    <path class="cls-3" d="M650.71,339.74h-17.55l-38.17-79.4,13.79-.42v92.08h-23.12v-99.6h26.75l33.85,70.9h-8.36l33.85-70.9h26.19v99.6h-23.4v-92.08l14.35.42-38.17,79.4h0Z"/>
    <path class="cls-3" d="M783.33,333.89h-62.13v-19.92h62.13v19.92ZM804.5,352h-25.77l-29.81-82.05h6.13l-29.95,82.05h-24.94l38.87-99.6h26.61l38.86,99.6Z"/>
  </g>
</svg>