<?xml version="1.0" encoding="UTF-8" standalone="no"?><!DOCTYPE svg PUBLIC "-//W3C//DTD SVG 1.1//EN" "http://www.w3.org/Graphics/SVG/1.1/DTD/svg11.dtd"><svg width="100%" height="100%" viewBox="0 0 810 810" version="1.1" xmlns="http://www.w3.org/2000/svg" xmlns:xlink="http://www.w3.org/1999/xlink" xml:space="preserve" xmlns:serif="http://www.serif.com/" style="fill-rule:evenodd;clip-rule:evenodd;stroke-linejoin:round;stroke-miterlimit:2;"><rect id="Artboard7" x="0" y="0" width="810" height="810" style="fill:none;"/><rect x="0" y="0" width="810" height="810" style="fill:#fff;"/><g><path d="M444.25,230.359l-71.394,71.393l-11.185,-11.184l71.394,-71.394l11.185,11.185Z"/><path d="M452.296,361.109l-83.12,-83.121l-11.185,11.184l83.121,83.121l11.184,-11.184Z"/><circle cx="365.53" cy="360.202" r="23.427"/><circle cx="365.53" cy="219.93" r="23.427" style="fill:#808080;"/><path d="M388.956,287.649c0,12.929 -10.497,23.426 -23.426,23.426c-12.93,0 -23.427,-10.497 -23.427,-23.426c-0,-12.93 10.497,-23.427 23.427,-23.427c12.929,0 23.426,10.497 23.426,23.427Z"/><circle cx="444.47" cy="219.93" r="23.427"/><circle cx="444.47" cy="360.202" r="23.427"/></g><g><path d="M609.027,563.567c13.786,0 24.963,11.176 24.963,24.963c-0,0.001 -0,0.002 -0,0.003c-0,13.787 -11.177,24.963 -24.963,24.963c-79.816,0 -328.238,0 -408.054,0c-13.786,0 -24.963,-11.176 -24.963,-24.963c0,-0.001 0,-0.002 0,-0.003c0,-13.787 11.177,-24.963 24.963,-24.963l408.054,0Z" style="fill:#808080;"/><path d="M230.263,593.562l-10.423,-0l-0,-2.714l10.423,-0l0,2.714Zm3.698,4.462l-3.386,-0l-6.031,-16.78l0.984,-0l-6.031,16.78l-3.258,-0l7.111,-18.985l3.488,0l7.123,18.985Z" style="fill:#fff;fill-rule:nonzero;"/><path d="M237.855,598.024l0,-18.985l6.409,0c1.905,0 3.572,0.405 5.002,1.216c1.429,0.81 2.544,1.928 3.344,3.352c0.8,1.425 1.199,3.062 1.199,4.911c0,1.849 -0.399,3.489 -1.199,4.918c-0.8,1.43 -1.915,2.552 -3.344,3.367c-1.43,0.814 -3.097,1.221 -5.002,1.221l-6.409,-0Zm3.16,-2.728l3.249,-0c1.282,-0 2.388,-0.281 3.317,-0.842c0.929,-0.561 1.647,-1.352 2.155,-2.374c0.508,-1.022 0.762,-2.209 0.762,-3.562c-0,-1.352 -0.254,-2.535 -0.762,-3.548c-0.508,-1.013 -1.226,-1.8 -2.155,-2.361c-0.929,-0.561 -2.035,-0.842 -3.317,-0.842l-3.249,0l0,13.529Z" style="fill:#fff;fill-rule:nonzero;"/><path d="M265.971,598.024l-3.208,-0l-7.002,-18.985l3.415,0l5.72,16.61l-0.893,0l5.698,-16.61l3.273,0l-7.003,18.985Z" style="fill:#fff;fill-rule:nonzero;"/><path d="M286.868,593.562l-10.423,-0l-0,-2.714l10.423,-0l0,2.714Zm3.698,4.462l-3.386,-0l-6.031,-16.78l0.984,-0l-6.031,16.78l-3.258,-0l7.111,-18.985l3.488,0l7.123,18.985Z" style="fill:#fff;fill-rule:nonzero;"/><path d="M297.54,598.024l-3.08,-0l0,-18.985l3.319,0l10.104,15.87l-1.169,0l-0,-15.87l3.08,0l-0,18.985l-3.319,-0l-10.092,-15.87l1.157,-0l0,15.87Z" style="fill:#fff;fill-rule:nonzero;"/><path d="M328.794,592.739l2.089,2.135c-0.809,1.115 -1.857,1.99 -3.144,2.624c-1.286,0.634 -2.64,0.951 -4.06,0.951c-1.349,-0 -2.592,-0.246 -3.729,-0.738c-1.138,-0.491 -2.128,-1.182 -2.972,-2.073c-0.843,-0.891 -1.494,-1.942 -1.953,-3.154c-0.46,-1.212 -0.689,-2.529 -0.689,-3.951c-0,-1.432 0.234,-2.752 0.702,-3.96c0.468,-1.208 1.121,-2.257 1.96,-3.148c0.838,-0.89 1.835,-1.581 2.99,-2.073c1.155,-0.492 2.411,-0.738 3.768,-0.738c1.459,0 2.802,0.308 4.029,0.924c1.227,0.615 2.26,1.499 3.098,2.651l-2.089,2.135c-0.598,-0.932 -1.33,-1.645 -2.195,-2.14c-0.865,-0.495 -1.823,-0.743 -2.872,-0.743c-1.174,0 -2.22,0.303 -3.139,0.909c-0.919,0.606 -1.639,1.441 -2.16,2.504c-0.521,1.063 -0.781,2.29 -0.781,3.679c0,1.37 0.26,2.591 0.781,3.663c0.521,1.072 1.239,1.911 2.154,2.517c0.915,0.606 1.963,0.909 3.145,0.909c1.04,-0 1.997,-0.25 2.872,-0.75c0.874,-0.5 1.606,-1.211 2.195,-2.133Z" style="fill:#fff;fill-rule:nonzero;"/><path d="M347.459,598.024l-12.425,-0l-0,-18.985l12.425,0l-0,2.714l-9.266,-0l0,13.557l9.266,0l-0,2.714Zm-0.478,-8.283l-9.053,-0l-0,-2.714l9.053,0l-0,2.714Z" style="fill:#fff;fill-rule:nonzero;"/><path d="M351.737,598.024l0,-18.985l6.408,0c1.905,0 3.573,0.405 5.002,1.216c1.43,0.81 2.545,1.928 3.344,3.352c0.8,1.425 1.2,3.062 1.2,4.911c0,1.849 -0.4,3.489 -1.2,4.918c-0.799,1.43 -1.914,2.552 -3.344,3.367c-1.429,0.814 -3.097,1.221 -5.002,1.221l-6.408,-0Zm3.16,-2.728l3.248,-0c1.283,-0 2.389,-0.281 3.318,-0.842c0.929,-0.561 1.647,-1.352 2.155,-2.374c0.508,-1.022 0.761,-2.209 0.761,-3.562c0,-1.352 -0.253,-2.535 -0.761,-3.548c-0.508,-1.013 -1.226,-1.8 -2.155,-2.361c-0.929,-0.561 -2.035,-0.842 -3.318,-0.842l-3.248,0l-0,13.529Z" style="fill:#fff;fill-rule:nonzero;"/><path d="M385.938,598.024l-3.147,-0l-0,-16.498l3.147,0l0,16.498Zm5.642,-16.232l-14.431,-0l0,-2.753l14.431,0l0,2.753Z" style="fill:#fff;fill-rule:nonzero;"/><path d="M407.926,598.024l-12.425,-0l0,-18.985l12.425,0l0,2.714l-9.265,-0l-0,13.557l9.265,0l0,2.714Zm-0.478,-8.283l-9.053,-0l0,-2.714l9.053,0l0,2.714Z" style="fill:#fff;fill-rule:nonzero;"/><path d="M425.695,592.739l2.089,2.135c-0.809,1.115 -1.857,1.99 -3.143,2.624c-1.287,0.634 -2.641,0.951 -4.061,0.951c-1.349,-0 -2.592,-0.246 -3.729,-0.738c-1.138,-0.491 -2.128,-1.182 -2.972,-2.073c-0.843,-0.891 -1.494,-1.942 -1.953,-3.154c-0.46,-1.212 -0.689,-2.529 -0.689,-3.951c-0,-1.432 0.234,-2.752 0.702,-3.96c0.468,-1.208 1.121,-2.257 1.96,-3.148c0.838,-0.89 1.835,-1.581 2.99,-2.073c1.155,-0.492 2.411,-0.738 3.768,-0.738c1.459,0 2.802,0.308 4.029,0.924c1.227,0.615 2.26,1.499 3.098,2.651l-2.089,2.135c-0.598,-0.932 -1.33,-1.645 -2.195,-2.14c-0.865,-0.495 -1.823,-0.743 -2.872,-0.743c-1.174,0 -2.22,0.303 -3.139,0.909c-0.919,0.606 -1.639,1.441 -2.16,2.504c-0.521,1.063 -0.781,2.29 -0.781,3.679c0,1.37 0.26,2.591 0.781,3.663c0.521,1.072 1.239,1.911 2.154,2.517c0.915,0.606 1.963,0.909 3.145,0.909c1.04,-0 1.997,-0.25 2.872,-0.75c0.874,-0.5 1.606,-1.211 2.195,-2.133Z" style="fill:#fff;fill-rule:nonzero;"/><path d="M443.865,598.024l-0,-18.985l3.16,0l-0,18.985l-3.16,-0Zm-8.771,-0l-3.159,-0l-0,-18.985l3.159,0l0,18.985Zm-0.265,-8.416l-0,-2.74l9.275,-0l-0,2.74l-9.275,0Z" style="fill:#fff;fill-rule:nonzero;"/><path d="M455.614,598.024l-3.08,-0l0,-18.985l3.319,0l10.103,15.87l-1.169,0l0,-15.87l3.08,0l0,18.985l-3.319,-0l-10.091,-15.87l1.157,-0l0,15.87Z" style="fill:#fff;fill-rule:nonzero;"/><path d="M481.88,598.449c-1.367,-0 -2.627,-0.248 -3.779,-0.744c-1.153,-0.495 -2.155,-1.188 -3.008,-2.078c-0.853,-0.89 -1.513,-1.941 -1.981,-3.154c-0.469,-1.212 -0.703,-2.531 -0.703,-3.955c0,-1.424 0.234,-2.738 0.703,-3.941c0.468,-1.204 1.128,-2.251 1.981,-3.141c0.853,-0.89 1.855,-1.582 3.008,-2.078c1.152,-0.496 2.412,-0.744 3.779,-0.744c1.368,0 2.628,0.248 3.779,0.743c1.152,0.494 2.155,1.188 3.009,2.081c0.855,0.892 1.516,1.939 1.984,3.141c0.468,1.202 0.702,2.515 0.702,3.939c-0,1.424 -0.234,2.742 -0.702,3.952c-0.468,1.211 -1.129,2.263 -1.984,3.155c-0.854,0.893 -1.857,1.587 -3.009,2.082c-1.151,0.494 -2.411,0.742 -3.779,0.742Zm-0,-2.839c1.222,-0 2.295,-0.306 3.218,-0.916c0.924,-0.611 1.648,-1.452 2.171,-2.524c0.524,-1.073 0.785,-2.29 0.785,-3.652c0,-1.377 -0.261,-2.593 -0.785,-3.65c-0.523,-1.056 -1.247,-1.889 -2.171,-2.499c-0.923,-0.61 -1.996,-0.916 -3.218,-0.916c-1.207,0 -2.274,0.305 -3.203,0.915c-0.928,0.61 -1.653,1.444 -2.174,2.501c-0.522,1.056 -0.782,2.274 -0.782,3.651c-0,1.362 0.26,2.579 0.782,3.651c0.521,1.073 1.246,1.914 2.174,2.524c0.929,0.61 1.996,0.915 3.203,0.915Z" style="fill:#fff;fill-rule:nonzero;"/><path d="M507.804,598.024l-11.908,-0l-0,-18.985l3.159,0l0,16.209l8.749,-0l0,2.776Z" style="fill:#fff;fill-rule:nonzero;"/><path d="M519.154,598.449c-1.367,-0 -2.627,-0.248 -3.779,-0.744c-1.153,-0.495 -2.155,-1.188 -3.008,-2.078c-0.853,-0.89 -1.513,-1.941 -1.981,-3.154c-0.469,-1.212 -0.703,-2.531 -0.703,-3.955c0,-1.424 0.234,-2.738 0.703,-3.941c0.468,-1.204 1.128,-2.251 1.981,-3.141c0.853,-0.89 1.855,-1.582 3.008,-2.078c1.152,-0.496 2.412,-0.744 3.779,-0.744c1.368,0 2.628,0.248 3.779,0.743c1.152,0.494 2.155,1.188 3.009,2.081c0.855,0.892 1.516,1.939 1.984,3.141c0.468,1.202 0.702,2.515 0.702,3.939c-0,1.424 -0.234,2.742 -0.702,3.952c-0.468,1.211 -1.129,2.263 -1.984,3.155c-0.854,0.893 -1.857,1.587 -3.009,2.082c-1.151,0.494 -2.411,0.742 -3.779,0.742Zm-0,-2.839c1.222,-0 2.295,-0.306 3.218,-0.916c0.924,-0.611 1.648,-1.452 2.171,-2.524c0.524,-1.073 0.785,-2.29 0.785,-3.652c0,-1.377 -0.261,-2.593 -0.785,-3.65c-0.523,-1.056 -1.247,-1.889 -2.171,-2.499c-0.923,-0.61 -1.996,-0.916 -3.218,-0.916c-1.207,0 -2.274,0.305 -3.203,0.915c-0.928,0.61 -1.653,1.444 -2.174,2.501c-0.522,1.056 -0.782,2.274 -0.782,3.651c-0,1.362 0.26,2.579 0.782,3.651c0.521,1.073 1.246,1.914 2.174,2.524c0.929,0.61 1.996,0.915 3.203,0.915Z" style="fill:#fff;fill-rule:nonzero;"/><path d="M549.693,598.024l-2.933,-0l0,-2.658l0.292,0.118c-0.569,0.969 -1.35,1.705 -2.341,2.209c-0.992,0.504 -2.147,0.756 -3.465,0.756c-1.292,-0 -2.487,-0.248 -3.585,-0.744c-1.099,-0.495 -2.057,-1.19 -2.877,-2.084c-0.819,-0.894 -1.454,-1.945 -1.905,-3.152c-0.452,-1.208 -0.677,-2.525 -0.677,-3.951c-0,-1.424 0.236,-2.738 0.708,-3.941c0.472,-1.204 1.132,-2.253 1.979,-3.147c0.847,-0.894 1.844,-1.586 2.991,-2.078c1.146,-0.492 2.393,-0.738 3.742,-0.738c1.522,0 2.932,0.31 4.229,0.929c1.296,0.618 2.374,1.501 3.231,2.646l-2.103,2.135c-0.684,-0.985 -1.465,-1.712 -2.344,-2.18c-0.879,-0.468 -1.893,-0.703 -3.042,-0.703c-1.183,0 -2.232,0.303 -3.146,0.909c-0.915,0.606 -1.632,1.439 -2.153,2.497c-0.521,1.058 -0.781,2.282 -0.781,3.671c0,1.407 0.263,2.647 0.788,3.719c0.526,1.072 1.26,1.904 2.203,2.496c0.942,0.593 2.04,0.889 3.294,0.889c1.167,-0 2.206,-0.277 3.115,-0.831c0.91,-0.553 1.6,-1.335 2.072,-2.344l-0.251,1.021l-0,-3.08l-5.245,0l0,-2.617l8.204,-0l0,10.253Z" style="fill:#fff;fill-rule:nonzero;"/><rect x="554.496" y="579.039" width="3.16" height="18.985" style="fill:#fff;fill-rule:nonzero;"/><path d="M575.59,598.024l-12.425,-0l0,-18.985l12.425,0l0,2.714l-9.265,-0l-0,13.557l9.265,0l0,2.714Zm-0.478,-8.283l-9.053,-0l0,-2.714l9.053,0l0,2.714Z" style="fill:#fff;fill-rule:nonzero;"/><path d="M578.449,594.946l2.116,-2.139c0.47,0.61 1.013,1.13 1.63,1.562c0.618,0.431 1.285,0.76 2.002,0.986c0.716,0.226 1.457,0.339 2.222,0.339c1.262,-0 2.266,-0.269 3.011,-0.807c0.746,-0.538 1.118,-1.257 1.118,-2.159c0,-0.823 -0.343,-1.462 -1.028,-1.917c-0.686,-0.456 -1.837,-0.814 -3.453,-1.075c-2.384,-0.373 -4.121,-0.988 -5.214,-1.844c-1.092,-0.856 -1.639,-2.034 -1.639,-3.533c0,-1.151 0.298,-2.155 0.893,-3.014c0.596,-0.858 1.422,-1.528 2.48,-2.009c1.058,-0.481 2.265,-0.722 3.622,-0.722c1.533,0 2.939,0.284 4.217,0.852c1.279,0.568 2.381,1.39 3.306,2.465l-2.065,2.125c-0.728,-0.895 -1.541,-1.568 -2.441,-2.02c-0.899,-0.453 -1.901,-0.679 -3.005,-0.679c-1.158,0 -2.079,0.244 -2.764,0.731c-0.685,0.487 -1.027,1.167 -1.027,2.039c-0,0.722 0.322,1.283 0.968,1.685c0.645,0.401 1.749,0.731 3.312,0.988c2.451,0.39 4.239,1.046 5.364,1.969c1.125,0.923 1.687,2.193 1.687,3.812c0,1.155 -0.309,2.177 -0.927,3.064c-0.618,0.888 -1.482,1.577 -2.593,2.068c-1.112,0.49 -2.402,0.736 -3.871,0.736c-1.592,-0 -3.067,-0.298 -4.422,-0.895c-1.356,-0.596 -2.522,-1.465 -3.499,-2.608Z" style="fill:#fff;fill-rule:nonzero;"/></g><path d="M159.744,519.226l-13.486,-0l0,-83.847l13.486,-0l0,83.847Zm60.393,-0l-18.808,-0l-44.445,-43.507l1.735,0l39.52,-40.34l17.073,-0l-42.169,41.958l0,-3.236l47.094,45.125Z" style="fill-rule:nonzero;"/><path d="M296.667,435.379l-0,50.777c-0,11.023 -3.104,19.603 -9.311,25.741c-6.207,6.137 -14.783,9.205 -25.728,9.205c-10.864,0 -19.419,-3.068 -25.668,-9.205c-6.248,-6.138 -9.372,-14.718 -9.372,-25.741l0,-50.777l13.486,-0l0,50.777c0,7.208 1.9,12.833 5.699,16.875c3.8,4.041 9.087,6.062 15.862,6.062c6.843,0 12.164,-2.021 15.964,-6.062c3.8,-4.042 5.699,-9.667 5.699,-16.875l0,-50.777l13.369,-0Z" style="fill-rule:nonzero;"/><path d="M327.04,519.226l-13.486,-0l-0,-83.847l13.486,-0l-0,83.847Zm60.393,-0l-18.809,-0l-44.445,-43.507l1.736,0l39.519,-40.34l17.074,-0l-42.169,41.958l-0,-3.236l47.094,45.125Z" style="fill-rule:nonzero;"/><path d="M463.962,435.379l0,50.777c0,11.023 -3.103,19.603 -9.311,25.741c-6.207,6.137 -14.783,9.205 -25.728,9.205c-10.863,0 -19.419,-3.068 -25.667,-9.205c-6.248,-6.138 -9.372,-14.718 -9.372,-25.741l-0,-50.777l13.485,-0l0,50.777c0,7.208 1.9,12.833 5.7,16.875c3.799,4.041 9.087,6.062 15.861,6.062c6.843,0 12.165,-2.021 15.964,-6.062c3.8,-4.042 5.7,-9.667 5.7,-16.875l-0,-50.777l13.368,-0Z" style="fill-rule:nonzero;"/><path d="M530.36,510.876l-9.991,-0l-33.116,-69.095l6.474,-0.139l-0,77.584l-13.065,-0l0,-83.847l16.114,-0l31.801,66.654l-6.191,0l31.803,-66.654l15.784,-0l0,83.847l-13.158,-0l0,-77.584l6.662,0.139l-33.117,69.095Z" style="fill-rule:nonzero;"/><path d="M647.042,499.056l-48.291,-0l0,-11.493l48.291,0l-0,11.493Zm16.7,20.17l-14.379,-0l-28.683,-74.7l4.457,-0l-28.731,74.7l-13.886,-0l33.211,-83.847l14.8,-0l33.211,83.847Z" style="fill-rule:nonzero;"/></svg>