<?xml version="1.0" encoding="UTF-8" standalone="no"?><!DOCTYPE svg PUBLIC "-//W3C//DTD SVG 1.1//EN" "http://www.w3.org/Graphics/SVG/1.1/DTD/svg11.dtd"><svg width="100%" height="100%" viewBox="0 0 810 810" version="1.1" xmlns="http://www.w3.org/2000/svg" xmlns:xlink="http://www.w3.org/1999/xlink" xml:space="preserve" xmlns:serif="http://www.serif.com/" style="fill-rule:evenodd;clip-rule:evenodd;stroke-linejoin:round;stroke-miterlimit:2;"><rect id="Artboard3" x="0" y="0" width="810" height="810" style="fill:none;"/><rect x="0" y="0" width="810" height="810" style="fill:#fff;"/><g><g><path d="M483.5,285.584l-142.788,142.788l-22.37,-22.37l142.788,-142.787l22.37,22.369Z"/><path d="M499.593,547.084l-166.242,-166.241l-22.369,22.369l166.242,166.242l22.369,-22.37Z"/><circle cx="326.059" cy="545.272" r="46.853"/><path d="M372.912,400.165c0,25.859 -20.994,46.853 -46.853,46.853c-25.859,-0 -46.853,-20.994 -46.853,-46.853c-0,-25.859 20.994,-46.853 46.853,-46.853c25.859,-0 46.853,20.994 46.853,46.853Z"/><circle cx="483.941" cy="264.728" r="46.853"/><circle cx="483.941" cy="545.272" r="46.853"/></g><circle cx="326.059" cy="264.728" r="46.853" style="fill:#808080;"/></g></svg>